<svg width="374" height="447" viewBox="0 0 374 447" fill="none" xmlns="http://www.w3.org/2000/svg">
<path d="M2 80.4849V437C2 441.418 5.58171 445 9.99998 445H287.797C289.622 445 291.392 444.376 292.813 443.232L369.016 381.897C370.903 380.379 372 378.087 372 375.665V10C372 5.58172 368.418 2 364 2H104.701C102.98 2 101.305 2.55494 99.9249 3.58244L5.2235 74.0673C3.19524 75.577 2 77.9565 2 80.4849Z" fill="url(#paint0_linear_3_4596)" stroke="#FF00FF" stroke-width="3"/>
<path opacity="0.55" d="M6.26573 257.784L5.65089 241.799L311.738 34.8877L312.353 50.8723L6.26573 257.784ZM328.951 50.3424L328.809 46.4531L22.7217 253.365L22.8642 257.254L328.951 50.3424Z" fill="url(#paint1_linear_3_4596)"/>
<path opacity="0.55" d="M347.729 203.919L348.536 219.132L59.9363 420.26L59.1295 405.047L347.729 203.919ZM43.3313 405.774L43.5209 409.475L332.12 208.348L331.931 204.646L43.3313 405.774Z" fill="url(#paint2_linear_3_4596)"/>
<defs>
<linearGradient id="paint0_linear_3_4596" x1="187" y1="2" x2="187" y2="445" gradientUnits="userSpaceOnUse">
<stop stop-color="#6E41F7" stop-opacity="0.6"/>
<stop offset="1" stop-color="#F642D7" stop-opacity="0.2"/>
</linearGradient>
<linearGradient id="paint1_linear_3_4596" x1="424.735" y1="-82.8495" x2="86.13" y2="138.04" gradientUnits="userSpaceOnUse">
<stop stop-color="white"/>
<stop offset="1" stop-color="white" stop-opacity="0"/>
</linearGradient>
<linearGradient id="paint2_linear_3_4596" x1="-46.0329" y1="533.886" x2="273.299" y2="318.954" gradientUnits="userSpaceOnUse">
<stop stop-color="white"/>
<stop offset="1" stop-color="white" stop-opacity="0"/>
</linearGradient>
</defs>
</svg>
