<svg width="374" height="447" viewBox="0 0 374 447" fill="none" xmlns="http://www.w3.org/2000/svg">
<path d="M2 80.4849V437C2 441.418 5.58171 445 9.99998 445H287.797C289.622 445 291.392 444.376 292.813 443.232L369.016 381.897C370.903 380.379 372 378.087 372 375.665V10C372 5.58172 368.418 2 364 2H104.701C102.98 2 101.305 2.55494 99.9249 3.58244L5.2235 74.0673C3.19524 75.577 2 77.9565 2 80.4849Z" fill="url(#paint0_linear_3_4591)" stroke="#FF00FF" stroke-width="3"/>
<path opacity="0.55" d="M16.4308 255.784L15.8159 239.799L321.903 32.8877L322.518 48.8723L16.4308 255.784ZM339.116 48.3424L338.974 44.4531L32.8867 251.365L33.0292 255.254L339.116 48.3424Z" fill="url(#paint1_linear_3_4591)"/>
<path opacity="0.55" d="M357.893 201.919L358.7 217.132L70.1003 418.26L69.2935 403.047L357.893 201.919ZM53.4954 403.774L53.6849 407.475L342.284 206.348L342.095 202.646L53.4954 403.774Z" fill="url(#paint2_linear_3_4591)"/>
<defs>
<linearGradient id="paint0_linear_3_4591" x1="187" y1="2" x2="187" y2="445" gradientUnits="userSpaceOnUse">
<stop stop-color="#6E41F7"/>
<stop offset="1" stop-color="#F642D7"/>
</linearGradient>
<linearGradient id="paint1_linear_3_4591" x1="434.9" y1="-84.8495" x2="96.2951" y2="136.04" gradientUnits="userSpaceOnUse">
<stop stop-color="white"/>
<stop offset="1" stop-color="white" stop-opacity="0"/>
</linearGradient>
<linearGradient id="paint2_linear_3_4591" x1="-35.8688" y1="531.886" x2="283.463" y2="316.954" gradientUnits="userSpaceOnUse">
<stop stop-color="white"/>
<stop offset="1" stop-color="white" stop-opacity="0"/>
</linearGradient>
</defs>
</svg>
