<svg width="85" height="37" viewBox="0 0 85 37" fill="none" xmlns="http://www.w3.org/2000/svg">
<path fill-rule="evenodd" clip-rule="evenodd" d="M2.21091 0C0.989861 0 0 0.989862 0 2.21092V26.2489C0 26.9073 0.293396 27.5314 0.800346 27.9514L11.1078 36.4916C11.5044 36.8202 12.0033 37 12.5184 37H82.7891C84.0101 37 85 36.0101 85 34.7891V12.5264C85 11.8565 84.6963 11.2228 84.1742 10.8031L71.3406 0.487667C70.9479 0.172051 70.4592 0 69.9555 0H2.21091ZM4.03221 2.05566C2.81115 2.05566 1.82129 3.04553 1.82129 4.26658V24.725C1.82129 25.4074 2.13642 26.0516 2.67516 26.4704L12.0947 33.7939C12.4827 34.0956 12.9602 34.2594 13.4517 34.2594H78.4509C79.672 34.2594 80.6619 33.2695 80.6619 32.0485V13.1378C80.6619 12.444 80.3362 11.7905 79.7823 11.3727L68.0206 2.50145C67.637 2.21215 67.1696 2.05566 66.6892 2.05566H4.03221Z" fill="url(#paint0_linear_165_25)"/>
<defs>
<linearGradient id="paint0_linear_165_25" x1="42.5" y1="0" x2="42.5" y2="37" gradientUnits="userSpaceOnUse">
<stop stop-color="#6E41F7"/>
<stop offset="1" stop-color="#F642D7"/>
</linearGradient>
</defs>
</svg>
