<svg width="85" height="37" viewBox="0 0 85 37" fill="none" xmlns="http://www.w3.org/2000/svg">
<path fill-rule="evenodd" clip-rule="evenodd" d="M82.7891 0C84.0101 0 85 0.989862 85 2.21092V26.2489C85 26.9073 84.7066 27.5314 84.1997 27.9514L73.8922 36.4916C73.4956 36.8202 72.9967 37 72.4816 37H2.21092C0.989861 37 0 36.0101 0 34.7891V12.5264C0 11.8565 0.303691 11.2228 0.825795 10.8031L13.6594 0.487667C14.0521 0.172051 14.5408 0 15.0445 0H82.7891ZM81.9678 2.05566C83.1889 2.05566 84.1787 3.04553 84.1787 4.26658V24.725C84.1787 25.4074 83.8636 26.0516 83.3249 26.4704L73.9053 33.7939C73.5173 34.0956 73.0398 34.2594 72.5483 34.2594H7.54908C6.32803 34.2594 5.33817 33.2695 5.33817 32.0485V13.1378C5.33817 12.444 5.66384 11.7905 6.21774 11.3727L17.9795 2.50145C18.363 2.21215 18.8304 2.05566 19.3108 2.05566H81.9678Z" fill="url(#paint0_linear_165_49)"/>
<defs>
<linearGradient id="paint0_linear_165_49" x1="42.5" y1="0" x2="42.5" y2="37" gradientUnits="userSpaceOnUse">
<stop stop-color="#6E41F7"/>
<stop offset="1" stop-color="#F642D7"/>
</linearGradient>
</defs>
</svg>
