<svg width="24" height="24" viewBox="0 0 24 24" fill="none" xmlns="http://www.w3.org/2000/svg">
<path fill-rule="evenodd" clip-rule="evenodd" d="M12 24C18.6274 24 24 18.6274 24 12C24 5.37258 18.6274 0 12 0C5.37258 0 0 5.37258 0 12C0 18.6274 5.37258 24 12 24ZM8.51256 16.6034C11.0046 16.6034 13.025 14.5656 13.025 12.0518C13.025 9.53799 11.0048 7.5 8.51256 7.5C6.02033 7.5 4 9.53845 4 12.0518C4 14.5652 6.02049 16.6034 8.51256 16.6034ZM17.9755 12.0518C17.9755 14.418 16.9653 16.3369 15.7192 16.3369C14.4731 16.3369 13.4629 14.418 13.4629 12.0518C13.4629 9.68556 14.4729 7.7666 15.719 7.7666C16.9651 7.7666 17.9753 9.68494 17.9753 12.0518H17.9755ZM19.2065 15.8906C19.6448 15.8906 20 14.1713 20 12.0517C20 9.93157 19.6446 8.21289 19.2065 8.21289C18.7683 8.21289 18.4131 9.93172 18.4131 12.0517C18.4131 14.1717 18.7682 15.8906 19.2065 15.8906Z" fill="white" fill-opacity="0.85"/>
</svg>
