<svg width="2604" height="226" viewBox="0 0 2604 226" fill="none" xmlns="http://www.w3.org/2000/svg">
<g opacity="0.3">
<mask id="path-1-outside-1_77_1126" maskUnits="userSpaceOnUse" x="0" y="0" width="2604" height="226" fill="black">
<rect fill="white" width="2604" height="226"/>
<path d="M235.619 133.295C235.619 146.514 233.349 158.674 228.808 169.774C224.267 180.875 217.96 190.461 209.887 198.534C201.814 206.607 192.227 212.914 181.127 217.455C170.128 221.895 158.119 224.115 145.102 224.115H91.8203C78.8027 224.115 66.7438 221.895 55.6436 217.455C44.5433 212.914 34.9567 206.607 26.8838 198.534C18.8109 190.461 12.4535 180.875 7.81152 169.774C3.27051 158.674 1 146.514 1 133.295V91.8203C1 78.7018 3.27051 66.5924 7.81152 55.4922C12.4535 44.291 18.8109 34.7044 26.8838 26.7324C34.9567 18.6595 44.5433 12.3525 55.6436 7.81152C66.7438 3.27051 78.8027 1 91.8203 1H145.102C158.119 1 170.128 3.27051 181.127 7.81152C192.227 12.3525 201.814 18.6595 209.887 26.7324C217.96 34.7044 224.267 44.291 228.808 55.4922C233.349 66.5924 235.619 78.7018 235.619 91.8203V133.295ZM196.264 91.8203C196.264 84.0501 195.002 77.0368 192.479 70.7803C190.058 64.4229 186.576 59.0241 182.035 54.584C177.595 50.043 172.196 46.5615 165.839 44.1396C159.582 41.6169 152.67 40.3555 145.102 40.3555H91.8203C84.151 40.3555 77.1377 41.6169 70.7803 44.1396C64.5238 46.5615 59.125 50.043 54.584 54.584C50.043 59.0241 46.5111 64.4229 43.9883 70.7803C41.5664 77.0368 40.3555 84.0501 40.3555 91.8203V133.295C40.3555 141.065 41.5664 148.129 43.9883 154.486C46.5111 160.743 50.043 166.142 54.584 170.683C59.125 175.123 64.5238 178.604 70.7803 181.127C77.1377 183.549 84.151 184.76 91.8203 184.76H144.799C152.468 184.76 159.431 183.549 165.688 181.127C172.045 178.604 177.494 175.123 182.035 170.683C186.576 166.142 190.058 160.743 192.479 154.486C195.002 148.129 196.264 141.065 196.264 133.295V91.8203Z"/>
<path d="M487.191 201.259C487.191 204.084 486.687 206.708 485.678 209.13C484.669 211.552 483.256 213.671 481.439 215.487C479.623 217.203 477.504 218.565 475.082 219.574C472.66 220.583 470.087 221.088 467.362 221.088H378.661C370.285 221.088 361.809 220.18 353.231 218.363C344.654 216.547 336.329 213.772 328.256 210.038C320.284 206.203 312.766 201.36 305.702 195.507C298.638 189.654 292.432 182.742 287.084 174.77C281.837 166.697 277.699 157.514 274.672 147.221C271.645 136.827 270.131 125.272 270.131 112.558V4.02734H309.486V112.558C309.486 123.658 311 133.043 314.027 140.712C317.156 148.381 321.091 154.789 325.834 159.936C330.577 165.082 335.774 169.118 341.425 172.045C347.076 174.971 352.424 177.141 357.47 178.554C362.616 179.966 367.107 180.875 370.941 181.278C374.877 181.581 377.45 181.732 378.661 181.732H447.836V4.02734H487.191V201.259Z"/>
<path d="M749.965 76.9863C749.965 85.9674 748.855 93.9899 746.635 101.054C744.415 108.118 741.387 114.374 737.553 119.823C733.819 125.172 729.48 129.763 724.535 133.598C719.59 137.432 714.394 140.611 708.944 143.134C703.596 145.556 698.147 147.322 692.597 148.432C687.147 149.542 682.001 150.097 677.157 150.097L759.35 221.088H698.5L616.459 150.097H588.153V110.741H677.157C682.102 110.338 686.592 109.328 690.629 107.714C694.766 105.998 698.298 103.728 701.225 100.902C704.252 98.0768 706.573 94.6963 708.188 90.7607C709.802 86.7243 710.609 82.1328 710.609 76.9863V52.1621C710.609 49.9421 710.307 48.277 709.701 47.167C709.197 45.9561 708.49 45.0983 707.582 44.5938C706.775 43.9883 705.867 43.6351 704.857 43.5342C703.949 43.4333 703.091 43.3828 702.284 43.3828H572.411V221.088H533.056V23.8564C533.056 21.1318 533.56 18.5586 534.569 16.1367C535.578 13.7148 536.941 11.5957 538.656 9.7793C540.473 7.96289 542.592 6.55013 545.014 5.54102C547.436 4.5319 550.059 4.02734 552.885 4.02734H702.284C711.063 4.02734 718.48 5.64193 724.535 8.87109C730.59 11.9993 735.484 15.9854 739.218 20.8291C743.052 25.5719 745.777 30.7184 747.392 36.2686C749.107 41.8187 749.965 47.0156 749.965 51.8594V76.9863Z"/>
<path d="M1104.77 94.8477C1104.77 103.829 1103.66 111.851 1101.44 118.915C1099.22 125.979 1096.19 132.235 1092.36 137.685C1088.62 143.033 1084.28 147.624 1079.34 151.459C1074.4 155.294 1069.2 158.422 1063.75 160.844C1058.4 163.266 1052.95 165.032 1047.4 166.142C1041.95 167.252 1036.81 167.807 1031.96 167.807H942.958V128.451H1031.96C1037.01 128.048 1041.55 127.038 1045.58 125.424C1049.72 123.708 1053.25 121.438 1056.18 118.612C1059.11 115.787 1061.38 112.406 1062.99 108.471C1064.61 104.434 1065.41 99.8932 1065.41 94.8477V76.9863C1064.91 72.0417 1063.85 67.5007 1062.24 63.3633C1060.62 59.2259 1058.4 55.694 1055.58 52.7676C1052.85 49.8411 1049.52 47.5706 1045.58 45.9561C1041.65 44.2406 1037.11 43.3828 1031.96 43.3828H943.261C938.013 43.3828 934.027 44.7451 931.303 47.4697C928.578 50.1943 927.216 54.1299 927.216 59.2764V221.088H887.86V59.2764C887.86 49.1852 889.677 40.6077 893.31 33.5439C897.043 26.4801 901.635 20.7786 907.084 16.4395C912.634 12.1003 918.638 8.97201 925.097 7.05469C931.555 5.03646 937.509 4.02734 942.958 4.02734H1031.96C1040.84 4.02734 1048.81 5.18783 1055.88 7.50879C1062.94 9.72884 1069.15 12.7562 1074.5 16.5908C1079.95 20.3245 1084.54 24.6637 1088.27 29.6084C1092.11 34.5531 1095.23 39.75 1097.66 45.1992C1100.18 50.5475 1101.99 55.9967 1103.1 61.5469C1104.21 66.9961 1104.77 72.1426 1104.77 76.9863V94.8477Z"/>
<path d="M1351.5 221.088H1312.14V167.807H1173.79V221.088H1134.44V112.558C1134.44 96.7145 1137.16 82.1328 1142.61 68.8125C1148.06 55.4922 1155.63 44.0387 1165.32 34.4521C1175 24.8656 1186.46 17.3981 1199.68 12.0498C1212.9 6.7015 1227.33 4.02734 1242.97 4.02734H1331.67C1334.39 4.02734 1336.97 4.5319 1339.39 5.54102C1341.81 6.55013 1343.93 7.96289 1345.75 9.7793C1347.56 11.5957 1348.98 13.7148 1349.98 16.1367C1350.99 18.5586 1351.5 21.1318 1351.5 23.8564V221.088ZM1173.79 128.451H1312.14V43.3828H1242.97C1241.76 43.3828 1239.18 43.5846 1235.25 43.9883C1231.41 44.291 1226.92 45.1488 1221.78 46.5615C1216.73 47.9743 1211.38 50.1439 1205.73 53.0703C1200.08 55.9967 1194.88 60.0332 1190.14 65.1797C1185.4 70.3262 1181.46 76.7845 1178.33 84.5547C1175.31 92.224 1173.79 101.558 1173.79 112.558V128.451Z"/>
<path d="M1614.27 76.9863C1614.27 85.9674 1613.16 93.9899 1610.94 101.054C1608.72 108.118 1605.69 114.374 1601.86 119.823C1598.13 125.172 1593.79 129.763 1588.84 133.598C1583.9 137.432 1578.7 140.611 1573.25 143.134C1567.9 145.556 1562.45 147.322 1556.9 148.432C1551.45 149.542 1546.31 150.097 1541.46 150.097L1623.66 221.088H1562.81L1480.77 150.097H1452.46V110.741H1541.46C1546.41 110.338 1550.9 109.328 1554.94 107.714C1559.07 105.998 1562.6 103.728 1565.53 100.902C1568.56 98.0768 1570.88 94.6963 1572.49 90.7607C1574.11 86.7243 1574.92 82.1328 1574.92 76.9863V52.1621C1574.92 49.9421 1574.61 48.277 1574.01 47.167C1573.5 45.9561 1572.8 45.0983 1571.89 44.5938C1571.08 43.9883 1570.17 43.6351 1569.16 43.5342C1568.26 43.4333 1567.4 43.3828 1566.59 43.3828H1436.72V221.088H1397.36V23.8564C1397.36 21.1318 1397.87 18.5586 1398.88 16.1367C1399.89 13.7148 1401.25 11.5957 1402.96 9.7793C1404.78 7.96289 1406.9 6.55013 1409.32 5.54102C1411.74 4.5319 1414.37 4.02734 1417.19 4.02734H1566.59C1575.37 4.02734 1582.79 5.64193 1588.84 8.87109C1594.9 11.9993 1599.79 15.9854 1603.52 20.8291C1607.36 25.5719 1610.08 30.7184 1611.7 36.2686C1613.41 41.8187 1614.27 47.0156 1614.27 51.8594V76.9863Z"/>
<path d="M1848.13 43.3828H1761.4V221.088H1722.04V43.3828H1635.16V4.02734H1848.13V43.3828Z"/>
<path d="M2094.11 204.286C2094.11 207.112 2093.55 209.735 2092.44 212.157C2091.43 214.579 2090.02 216.698 2088.2 218.515C2086.49 220.23 2084.42 221.592 2082 222.602C2079.57 223.611 2077 224.115 2074.28 224.115C2071.85 224.115 2069.38 223.661 2066.86 222.753C2064.44 221.845 2062.27 220.382 2060.35 218.363L1916.55 68.207V221.088H1877.2V20.8291C1877.2 16.7926 1878.31 13.1598 1880.53 9.93066C1882.85 6.60059 1885.77 4.12826 1889.31 2.51367C1893.04 1 1896.87 0.64681 1900.81 1.4541C1904.75 2.16048 1908.13 3.97689 1910.95 6.90332L2054.75 156.908V4.02734H2094.11V204.286Z"/>
<path d="M2318.43 132.387H2194.16V92.7285H2318.43V132.387ZM2336.14 221.088H2194.16C2188.71 221.088 2182.76 220.129 2176.3 218.212C2169.84 216.295 2163.84 213.166 2158.29 208.827C2152.84 204.387 2148.24 198.686 2144.51 191.723C2140.88 184.659 2139.06 176.031 2139.06 165.839V23.8564C2139.06 21.1318 2139.57 18.5586 2140.58 16.1367C2141.58 13.7148 2142.95 11.5957 2144.66 9.7793C2146.48 7.96289 2148.6 6.55013 2151.02 5.54102C2153.44 4.5319 2156.07 4.02734 2158.89 4.02734H2336.14V43.3828H2178.42V165.839C2178.42 170.985 2179.78 174.921 2182.5 177.646C2185.23 180.37 2189.21 181.732 2194.46 181.732H2336.14V221.088Z"/>
<path d="M2591.2 76.9863C2591.2 85.9674 2590.09 93.9899 2587.87 101.054C2585.65 108.118 2582.62 114.374 2578.78 119.823C2575.05 125.172 2570.71 129.763 2565.77 133.598C2560.82 137.432 2555.62 140.611 2550.17 143.134C2544.83 145.556 2539.38 147.322 2533.83 148.432C2528.38 149.542 2523.23 150.097 2518.39 150.097L2600.58 221.088H2539.73L2457.69 150.097H2429.38V110.741H2518.39C2523.33 110.338 2527.82 109.328 2531.86 107.714C2536 105.998 2539.53 103.728 2542.46 100.902C2545.48 98.0768 2547.8 94.6963 2549.42 90.7607C2551.03 86.7243 2551.84 82.1328 2551.84 76.9863V52.1621C2551.84 49.9421 2551.54 48.277 2550.93 47.167C2550.43 45.9561 2549.72 45.0983 2548.81 44.5938C2548.01 43.9883 2547.1 43.6351 2546.09 43.5342C2545.18 43.4333 2544.32 43.3828 2543.51 43.3828H2413.64V221.088H2374.29V23.8564C2374.29 21.1318 2374.79 18.5586 2375.8 16.1367C2376.81 13.7148 2378.17 11.5957 2379.89 9.7793C2381.7 7.96289 2383.82 6.55013 2386.24 5.54102C2388.67 4.5319 2391.29 4.02734 2394.12 4.02734H2543.51C2552.29 4.02734 2559.71 5.64193 2565.77 8.87109C2571.82 11.9993 2576.71 15.9854 2580.45 20.8291C2584.28 25.5719 2587.01 30.7184 2588.62 36.2686C2590.34 41.8187 2591.2 47.0156 2591.2 51.8594V76.9863Z"/>
</mask>
<path d="M235.619 133.295C235.619 146.514 233.349 158.674 228.808 169.774C224.267 180.875 217.96 190.461 209.887 198.534C201.814 206.607 192.227 212.914 181.127 217.455C170.128 221.895 158.119 224.115 145.102 224.115H91.8203C78.8027 224.115 66.7438 221.895 55.6436 217.455C44.5433 212.914 34.9567 206.607 26.8838 198.534C18.8109 190.461 12.4535 180.875 7.81152 169.774C3.27051 158.674 1 146.514 1 133.295V91.8203C1 78.7018 3.27051 66.5924 7.81152 55.4922C12.4535 44.291 18.8109 34.7044 26.8838 26.7324C34.9567 18.6595 44.5433 12.3525 55.6436 7.81152C66.7438 3.27051 78.8027 1 91.8203 1H145.102C158.119 1 170.128 3.27051 181.127 7.81152C192.227 12.3525 201.814 18.6595 209.887 26.7324C217.96 34.7044 224.267 44.291 228.808 55.4922C233.349 66.5924 235.619 78.7018 235.619 91.8203V133.295ZM196.264 91.8203C196.264 84.0501 195.002 77.0368 192.479 70.7803C190.058 64.4229 186.576 59.0241 182.035 54.584C177.595 50.043 172.196 46.5615 165.839 44.1396C159.582 41.6169 152.67 40.3555 145.102 40.3555H91.8203C84.151 40.3555 77.1377 41.6169 70.7803 44.1396C64.5238 46.5615 59.125 50.043 54.584 54.584C50.043 59.0241 46.5111 64.4229 43.9883 70.7803C41.5664 77.0368 40.3555 84.0501 40.3555 91.8203V133.295C40.3555 141.065 41.5664 148.129 43.9883 154.486C46.5111 160.743 50.043 166.142 54.584 170.683C59.125 175.123 64.5238 178.604 70.7803 181.127C77.1377 183.549 84.151 184.76 91.8203 184.76H144.799C152.468 184.76 159.431 183.549 165.688 181.127C172.045 178.604 177.494 175.123 182.035 170.683C186.576 166.142 190.058 160.743 192.479 154.486C195.002 148.129 196.264 141.065 196.264 133.295V91.8203Z" stroke="url(#paint0_linear_77_1126)" stroke-width="2" mask="url(#path-1-outside-1_77_1126)"/>
<path d="M487.191 201.259C487.191 204.084 486.687 206.708 485.678 209.13C484.669 211.552 483.256 213.671 481.439 215.487C479.623 217.203 477.504 218.565 475.082 219.574C472.66 220.583 470.087 221.088 467.362 221.088H378.661C370.285 221.088 361.809 220.18 353.231 218.363C344.654 216.547 336.329 213.772 328.256 210.038C320.284 206.203 312.766 201.36 305.702 195.507C298.638 189.654 292.432 182.742 287.084 174.77C281.837 166.697 277.699 157.514 274.672 147.221C271.645 136.827 270.131 125.272 270.131 112.558V4.02734H309.486V112.558C309.486 123.658 311 133.043 314.027 140.712C317.156 148.381 321.091 154.789 325.834 159.936C330.577 165.082 335.774 169.118 341.425 172.045C347.076 174.971 352.424 177.141 357.47 178.554C362.616 179.966 367.107 180.875 370.941 181.278C374.877 181.581 377.45 181.732 378.661 181.732H447.836V4.02734H487.191V201.259Z" stroke="url(#paint1_linear_77_1126)" stroke-width="2" mask="url(#path-1-outside-1_77_1126)"/>
<path d="M749.965 76.9863C749.965 85.9674 748.855 93.9899 746.635 101.054C744.415 108.118 741.387 114.374 737.553 119.823C733.819 125.172 729.48 129.763 724.535 133.598C719.59 137.432 714.394 140.611 708.944 143.134C703.596 145.556 698.147 147.322 692.597 148.432C687.147 149.542 682.001 150.097 677.157 150.097L759.35 221.088H698.5L616.459 150.097H588.153V110.741H677.157C682.102 110.338 686.592 109.328 690.629 107.714C694.766 105.998 698.298 103.728 701.225 100.902C704.252 98.0768 706.573 94.6963 708.188 90.7607C709.802 86.7243 710.609 82.1328 710.609 76.9863V52.1621C710.609 49.9421 710.307 48.277 709.701 47.167C709.197 45.9561 708.49 45.0983 707.582 44.5938C706.775 43.9883 705.867 43.6351 704.857 43.5342C703.949 43.4333 703.091 43.3828 702.284 43.3828H572.411V221.088H533.056V23.8564C533.056 21.1318 533.56 18.5586 534.569 16.1367C535.578 13.7148 536.941 11.5957 538.656 9.7793C540.473 7.96289 542.592 6.55013 545.014 5.54102C547.436 4.5319 550.059 4.02734 552.885 4.02734H702.284C711.063 4.02734 718.48 5.64193 724.535 8.87109C730.59 11.9993 735.484 15.9854 739.218 20.8291C743.052 25.5719 745.777 30.7184 747.392 36.2686C749.107 41.8187 749.965 47.0156 749.965 51.8594V76.9863Z" stroke="url(#paint2_linear_77_1126)" stroke-width="2" mask="url(#path-1-outside-1_77_1126)"/>
<path d="M1104.77 94.8477C1104.77 103.829 1103.66 111.851 1101.44 118.915C1099.22 125.979 1096.19 132.235 1092.36 137.685C1088.62 143.033 1084.28 147.624 1079.34 151.459C1074.4 155.294 1069.2 158.422 1063.75 160.844C1058.4 163.266 1052.95 165.032 1047.4 166.142C1041.95 167.252 1036.81 167.807 1031.96 167.807H942.958V128.451H1031.96C1037.01 128.048 1041.55 127.038 1045.58 125.424C1049.72 123.708 1053.25 121.438 1056.18 118.612C1059.11 115.787 1061.38 112.406 1062.99 108.471C1064.61 104.434 1065.41 99.8932 1065.41 94.8477V76.9863C1064.91 72.0417 1063.85 67.5007 1062.24 63.3633C1060.62 59.2259 1058.4 55.694 1055.58 52.7676C1052.85 49.8411 1049.52 47.5706 1045.58 45.9561C1041.65 44.2406 1037.11 43.3828 1031.96 43.3828H943.261C938.013 43.3828 934.027 44.7451 931.303 47.4697C928.578 50.1943 927.216 54.1299 927.216 59.2764V221.088H887.86V59.2764C887.86 49.1852 889.677 40.6077 893.31 33.5439C897.043 26.4801 901.635 20.7786 907.084 16.4395C912.634 12.1003 918.638 8.97201 925.097 7.05469C931.555 5.03646 937.509 4.02734 942.958 4.02734H1031.96C1040.84 4.02734 1048.81 5.18783 1055.88 7.50879C1062.94 9.72884 1069.15 12.7562 1074.5 16.5908C1079.95 20.3245 1084.54 24.6637 1088.27 29.6084C1092.11 34.5531 1095.23 39.75 1097.66 45.1992C1100.18 50.5475 1101.99 55.9967 1103.1 61.5469C1104.21 66.9961 1104.77 72.1426 1104.77 76.9863V94.8477Z" stroke="url(#paint3_linear_77_1126)" stroke-width="2" mask="url(#path-1-outside-1_77_1126)"/>
<path d="M1351.5 221.088H1312.14V167.807H1173.79V221.088H1134.44V112.558C1134.44 96.7145 1137.16 82.1328 1142.61 68.8125C1148.06 55.4922 1155.63 44.0387 1165.32 34.4521C1175 24.8656 1186.46 17.3981 1199.68 12.0498C1212.9 6.7015 1227.33 4.02734 1242.97 4.02734H1331.67C1334.39 4.02734 1336.97 4.5319 1339.39 5.54102C1341.81 6.55013 1343.93 7.96289 1345.75 9.7793C1347.56 11.5957 1348.98 13.7148 1349.98 16.1367C1350.99 18.5586 1351.5 21.1318 1351.5 23.8564V221.088ZM1173.79 128.451H1312.14V43.3828H1242.97C1241.76 43.3828 1239.18 43.5846 1235.25 43.9883C1231.41 44.291 1226.92 45.1488 1221.78 46.5615C1216.73 47.9743 1211.38 50.1439 1205.73 53.0703C1200.08 55.9967 1194.88 60.0332 1190.14 65.1797C1185.4 70.3262 1181.46 76.7845 1178.33 84.5547C1175.31 92.224 1173.79 101.558 1173.79 112.558V128.451Z" stroke="url(#paint4_linear_77_1126)" stroke-width="2" mask="url(#path-1-outside-1_77_1126)"/>
<path d="M1614.27 76.9863C1614.27 85.9674 1613.16 93.9899 1610.94 101.054C1608.72 108.118 1605.69 114.374 1601.86 119.823C1598.13 125.172 1593.79 129.763 1588.84 133.598C1583.9 137.432 1578.7 140.611 1573.25 143.134C1567.9 145.556 1562.45 147.322 1556.9 148.432C1551.45 149.542 1546.31 150.097 1541.46 150.097L1623.66 221.088H1562.81L1480.77 150.097H1452.46V110.741H1541.46C1546.41 110.338 1550.9 109.328 1554.94 107.714C1559.07 105.998 1562.6 103.728 1565.53 100.902C1568.56 98.0768 1570.88 94.6963 1572.49 90.7607C1574.11 86.7243 1574.92 82.1328 1574.92 76.9863V52.1621C1574.92 49.9421 1574.61 48.277 1574.01 47.167C1573.5 45.9561 1572.8 45.0983 1571.89 44.5938C1571.08 43.9883 1570.17 43.6351 1569.16 43.5342C1568.26 43.4333 1567.4 43.3828 1566.59 43.3828H1436.72V221.088H1397.36V23.8564C1397.36 21.1318 1397.87 18.5586 1398.88 16.1367C1399.89 13.7148 1401.25 11.5957 1402.96 9.7793C1404.78 7.96289 1406.9 6.55013 1409.32 5.54102C1411.74 4.5319 1414.37 4.02734 1417.19 4.02734H1566.59C1575.37 4.02734 1582.79 5.64193 1588.84 8.87109C1594.9 11.9993 1599.79 15.9854 1603.52 20.8291C1607.36 25.5719 1610.08 30.7184 1611.7 36.2686C1613.41 41.8187 1614.27 47.0156 1614.27 51.8594V76.9863Z" stroke="url(#paint5_linear_77_1126)" stroke-width="2" mask="url(#path-1-outside-1_77_1126)"/>
<path d="M1848.13 43.3828H1761.4V221.088H1722.04V43.3828H1635.16V4.02734H1848.13V43.3828Z" stroke="url(#paint6_linear_77_1126)" stroke-width="2" mask="url(#path-1-outside-1_77_1126)"/>
<path d="M2094.11 204.286C2094.11 207.112 2093.55 209.735 2092.44 212.157C2091.43 214.579 2090.02 216.698 2088.2 218.515C2086.49 220.23 2084.42 221.592 2082 222.602C2079.57 223.611 2077 224.115 2074.28 224.115C2071.85 224.115 2069.38 223.661 2066.86 222.753C2064.44 221.845 2062.27 220.382 2060.35 218.363L1916.55 68.207V221.088H1877.2V20.8291C1877.2 16.7926 1878.31 13.1598 1880.53 9.93066C1882.85 6.60059 1885.77 4.12826 1889.31 2.51367C1893.04 1 1896.87 0.64681 1900.81 1.4541C1904.75 2.16048 1908.13 3.97689 1910.95 6.90332L2054.75 156.908V4.02734H2094.11V204.286Z" stroke="url(#paint7_linear_77_1126)" stroke-width="2" mask="url(#path-1-outside-1_77_1126)"/>
<path d="M2318.43 132.387H2194.16V92.7285H2318.43V132.387ZM2336.14 221.088H2194.16C2188.71 221.088 2182.76 220.129 2176.3 218.212C2169.84 216.295 2163.84 213.166 2158.29 208.827C2152.84 204.387 2148.24 198.686 2144.51 191.723C2140.88 184.659 2139.06 176.031 2139.06 165.839V23.8564C2139.06 21.1318 2139.57 18.5586 2140.58 16.1367C2141.58 13.7148 2142.95 11.5957 2144.66 9.7793C2146.48 7.96289 2148.6 6.55013 2151.02 5.54102C2153.44 4.5319 2156.07 4.02734 2158.89 4.02734H2336.14V43.3828H2178.42V165.839C2178.42 170.985 2179.78 174.921 2182.5 177.646C2185.23 180.37 2189.21 181.732 2194.46 181.732H2336.14V221.088Z" stroke="url(#paint8_linear_77_1126)" stroke-width="2" mask="url(#path-1-outside-1_77_1126)"/>
<path d="M2591.2 76.9863C2591.2 85.9674 2590.09 93.9899 2587.87 101.054C2585.65 108.118 2582.62 114.374 2578.78 119.823C2575.05 125.172 2570.71 129.763 2565.77 133.598C2560.82 137.432 2555.62 140.611 2550.17 143.134C2544.83 145.556 2539.38 147.322 2533.83 148.432C2528.38 149.542 2523.23 150.097 2518.39 150.097L2600.58 221.088H2539.73L2457.69 150.097H2429.38V110.741H2518.39C2523.33 110.338 2527.82 109.328 2531.86 107.714C2536 105.998 2539.53 103.728 2542.46 100.902C2545.48 98.0768 2547.8 94.6963 2549.42 90.7607C2551.03 86.7243 2551.84 82.1328 2551.84 76.9863V52.1621C2551.84 49.9421 2551.54 48.277 2550.93 47.167C2550.43 45.9561 2549.72 45.0983 2548.81 44.5938C2548.01 43.9883 2547.1 43.6351 2546.09 43.5342C2545.18 43.4333 2544.32 43.3828 2543.51 43.3828H2413.64V221.088H2374.29V23.8564C2374.29 21.1318 2374.79 18.5586 2375.8 16.1367C2376.81 13.7148 2378.17 11.5957 2379.89 9.7793C2381.7 7.96289 2383.82 6.55013 2386.24 5.54102C2388.67 4.5319 2391.29 4.02734 2394.12 4.02734H2543.51C2552.29 4.02734 2559.71 5.64193 2565.77 8.87109C2571.82 11.9993 2576.71 15.9854 2580.45 20.8291C2584.28 25.5719 2587.01 30.7184 2588.62 36.2686C2590.34 41.8187 2591.2 47.0156 2591.2 51.8594V76.9863Z" stroke="url(#paint9_linear_77_1126)" stroke-width="2" mask="url(#path-1-outside-1_77_1126)"/>
</g>
<defs>
<linearGradient id="paint0_linear_77_1126" x1="1300.79" y1="1" x2="1300.79" y2="224.115" gradientUnits="userSpaceOnUse">
<stop stop-color="#6E41F7"/>
<stop offset="1" stop-color="#F642D7"/>
</linearGradient>
<linearGradient id="paint1_linear_77_1126" x1="1300.79" y1="1" x2="1300.79" y2="224.115" gradientUnits="userSpaceOnUse">
<stop stop-color="#6E41F7"/>
<stop offset="1" stop-color="#F642D7"/>
</linearGradient>
<linearGradient id="paint2_linear_77_1126" x1="1300.79" y1="1" x2="1300.79" y2="224.115" gradientUnits="userSpaceOnUse">
<stop stop-color="#6E41F7"/>
<stop offset="1" stop-color="#F642D7"/>
</linearGradient>
<linearGradient id="paint3_linear_77_1126" x1="1300.79" y1="1" x2="1300.79" y2="224.115" gradientUnits="userSpaceOnUse">
<stop stop-color="#6E41F7"/>
<stop offset="1" stop-color="#F642D7"/>
</linearGradient>
<linearGradient id="paint4_linear_77_1126" x1="1300.79" y1="1" x2="1300.79" y2="224.115" gradientUnits="userSpaceOnUse">
<stop stop-color="#6E41F7"/>
<stop offset="1" stop-color="#F642D7"/>
</linearGradient>
<linearGradient id="paint5_linear_77_1126" x1="1300.79" y1="1" x2="1300.79" y2="224.115" gradientUnits="userSpaceOnUse">
<stop stop-color="#6E41F7"/>
<stop offset="1" stop-color="#F642D7"/>
</linearGradient>
<linearGradient id="paint6_linear_77_1126" x1="1300.79" y1="1" x2="1300.79" y2="224.115" gradientUnits="userSpaceOnUse">
<stop stop-color="#6E41F7"/>
<stop offset="1" stop-color="#F642D7"/>
</linearGradient>
<linearGradient id="paint7_linear_77_1126" x1="1300.79" y1="1" x2="1300.79" y2="224.115" gradientUnits="userSpaceOnUse">
<stop stop-color="#6E41F7"/>
<stop offset="1" stop-color="#F642D7"/>
</linearGradient>
<linearGradient id="paint8_linear_77_1126" x1="1300.79" y1="1" x2="1300.79" y2="224.115" gradientUnits="userSpaceOnUse">
<stop stop-color="#6E41F7"/>
<stop offset="1" stop-color="#F642D7"/>
</linearGradient>
<linearGradient id="paint9_linear_77_1126" x1="1300.79" y1="1" x2="1300.79" y2="224.115" gradientUnits="userSpaceOnUse">
<stop stop-color="#6E41F7"/>
<stop offset="1" stop-color="#F642D7"/>
</linearGradient>
</defs>
</svg>
