<svg width="1858" height="226" viewBox="0 0 1858 226" fill="none" xmlns="http://www.w3.org/2000/svg">
<g opacity="0.3">
<mask id="path-1-outside-1_67_1134" maskUnits="userSpaceOnUse" x="0" y="0" width="1858" height="226" fill="black">
<rect fill="white" width="1858" height="226"/>
<path d="M235.619 133.368C235.619 146.587 233.349 158.747 228.808 169.847C224.267 180.948 217.96 190.534 209.887 198.607C201.814 206.68 192.227 212.987 181.127 217.528C170.128 221.968 158.119 224.188 145.102 224.188H91.8203C78.8027 224.188 66.7438 221.968 55.6436 217.528C44.5433 212.987 34.9567 206.68 26.8838 198.607C18.8109 190.534 12.4535 180.948 7.81152 169.847C3.27051 158.747 1 146.587 1 133.368V91.8932C1 78.7747 3.27051 66.6653 7.81152 55.5651C12.4535 44.3639 18.8109 34.7773 26.8838 26.8053C34.9567 18.7324 44.5433 12.4254 55.6436 7.8844C66.7438 3.34339 78.8027 1.07288 91.8203 1.07288H145.102C158.119 1.07288 170.128 3.34339 181.127 7.8844C192.227 12.4254 201.814 18.7324 209.887 26.8053C217.96 34.7773 224.267 44.3639 228.808 55.5651C233.349 66.6653 235.619 78.7747 235.619 91.8932V133.368ZM196.264 91.8932C196.264 84.123 195.002 77.1097 192.479 70.8532C190.058 64.4957 186.576 59.097 182.035 54.6569C177.595 50.1158 172.196 46.6344 165.839 44.2125C159.582 41.6897 152.67 40.4283 145.102 40.4283H91.8203C84.151 40.4283 77.1377 41.6897 70.7803 44.2125C64.5238 46.6344 59.125 50.1158 54.584 54.6569C50.043 59.097 46.5111 64.4957 43.9883 70.8532C41.5664 77.1097 40.3555 84.123 40.3555 91.8932V133.368C40.3555 141.138 41.5664 148.202 43.9883 154.559C46.5111 160.816 50.043 166.214 54.584 170.755C59.125 175.196 64.5238 178.677 70.7803 181.2C77.1377 183.622 84.151 184.833 91.8203 184.833H144.799C152.468 184.833 159.431 183.622 165.688 181.2C172.045 178.677 177.494 175.196 182.035 170.755C186.576 166.214 190.058 160.816 192.479 154.559C195.002 148.202 196.264 141.138 196.264 133.368V91.8932Z"/>
<path d="M487.191 201.332C487.191 204.157 486.687 206.781 485.678 209.203C484.669 211.625 483.256 213.744 481.439 215.56C479.623 217.276 477.504 218.638 475.082 219.647C472.66 220.656 470.087 221.161 467.362 221.161H378.661C370.285 221.161 361.809 220.253 353.231 218.436C344.654 216.62 336.329 213.845 328.256 210.111C320.284 206.276 312.766 201.433 305.702 195.58C298.638 189.727 292.432 182.814 287.084 174.842C281.837 166.769 277.699 157.587 274.672 147.294C271.645 136.9 270.131 125.345 270.131 112.631V4.10022H309.486V112.631C309.486 123.731 311 133.116 314.027 140.785C317.156 148.454 321.091 154.862 325.834 160.008C330.577 165.155 335.774 169.191 341.425 172.118C347.076 175.044 352.424 177.214 357.47 178.627C362.616 180.039 367.107 180.948 370.941 181.351C374.877 181.654 377.45 181.805 378.661 181.805H447.836V4.10022H487.191V201.332Z"/>
<path d="M749.965 77.0592C749.965 86.0403 748.855 94.0628 746.635 101.127C744.415 108.19 741.387 114.447 737.553 119.896C733.819 125.244 729.48 129.836 724.535 133.671C719.59 137.505 714.394 140.684 708.944 143.207C703.596 145.629 698.147 147.394 692.597 148.505C687.147 149.615 682.001 150.17 677.157 150.17L759.35 221.161H698.5L616.459 150.17H588.153V110.814H677.157C682.102 110.41 686.592 109.401 690.629 107.787C694.766 106.071 698.298 103.801 701.225 100.975C704.252 98.1497 706.573 94.7692 708.188 90.8336C709.802 86.7972 710.609 82.2057 710.609 77.0592V52.235C710.609 50.0149 710.307 48.3499 709.701 47.2399C709.197 46.0289 708.49 45.1712 707.582 44.6666C706.775 44.0612 705.867 43.708 704.857 43.6071C703.949 43.5061 703.091 43.4557 702.284 43.4557H572.411V221.161H533.056V23.9293C533.056 21.2047 533.56 18.6315 534.569 16.2096C535.578 13.7877 536.941 11.6686 538.656 9.85218C540.473 8.03577 542.592 6.62301 545.014 5.6139C547.436 4.60478 550.059 4.10022 552.885 4.10022H702.284C711.063 4.10022 718.48 5.71481 724.535 8.94397C730.59 12.0722 735.484 16.0582 739.218 20.902C743.052 25.6448 745.777 30.7913 747.392 36.3414C749.107 41.8916 749.965 47.0885 749.965 51.9323V77.0592Z"/>
<path d="M1081.31 43.4557H994.574V221.161H955.219V43.4557H868.334V4.10022H1081.31V43.4557Z"/>
<path d="M1288.83 132.46H1164.56V92.8014H1288.83V132.46ZM1306.54 221.161H1164.56C1159.11 221.161 1153.16 220.202 1146.7 218.285C1140.24 216.367 1134.24 213.239 1128.69 208.9C1123.24 204.46 1118.64 198.758 1114.91 191.796C1111.28 184.732 1109.46 176.104 1109.46 165.912V23.9293C1109.46 21.2047 1109.97 18.6315 1110.98 16.2096C1111.98 13.7877 1113.35 11.6686 1115.06 9.85218C1116.88 8.03577 1119 6.62301 1121.42 5.6139C1123.84 4.60478 1126.47 4.10022 1129.29 4.10022H1306.54V43.4557H1148.82V165.912C1148.82 171.058 1150.18 174.994 1152.9 177.718C1155.63 180.443 1159.61 181.805 1164.86 181.805H1306.54V221.161Z"/>
<path d="M1557.66 221.161H1518.3V167.88H1379.96V221.161H1340.6V112.631C1340.6 96.7874 1343.32 82.2057 1348.77 68.8854C1354.22 55.5651 1361.79 44.1116 1371.48 34.525C1381.17 24.9384 1392.62 17.471 1405.84 12.1227C1419.06 6.77438 1433.49 4.10022 1449.13 4.10022H1537.83C1540.56 4.10022 1543.13 4.60478 1545.55 5.6139C1547.97 6.62301 1550.09 8.03577 1551.91 9.85218C1553.72 11.6686 1555.14 13.7877 1556.15 16.2096C1557.16 18.6315 1557.66 21.2047 1557.66 23.9293V221.161ZM1379.96 128.524H1518.3V43.4557H1449.13C1447.92 43.4557 1445.35 43.6575 1441.41 44.0612C1437.58 44.3639 1433.08 45.2216 1427.94 46.6344C1422.89 48.0472 1417.54 50.2168 1411.89 53.1432C1406.24 56.0696 1401.05 60.1061 1396.3 65.2526C1391.56 70.3991 1387.62 76.8574 1384.5 84.6276C1381.47 92.2968 1379.96 101.631 1379.96 112.631V128.524Z"/>
<path d="M1856.16 221.161H1816.5V91.8932L1746.72 214.652C1745 217.78 1742.58 220.152 1739.45 221.766C1736.42 223.381 1733.15 224.188 1729.61 224.188C1726.18 224.188 1722.95 223.381 1719.93 221.766C1717 220.152 1714.68 217.78 1712.96 214.652L1642.88 91.8932V221.161H1603.52V20.902C1603.52 16.361 1604.84 12.3245 1607.46 8.79261C1610.18 5.26071 1613.72 2.88929 1618.06 1.67835C1620.17 1.17379 1622.29 1.02242 1624.41 1.22425C1626.53 1.32516 1628.55 1.77926 1630.47 2.58655C1632.49 3.29293 1634.3 4.3525 1635.92 5.76526C1637.53 7.07711 1638.89 8.6917 1640 10.609L1729.61 166.366L1819.22 10.609C1821.54 6.77438 1824.72 4.04977 1828.76 2.43519C1832.9 0.820602 1837.18 0.568323 1841.62 1.67835C1845.86 2.88929 1849.34 5.26071 1852.07 8.79261C1854.79 12.3245 1856.16 16.361 1856.16 20.902V221.161Z"/>
</mask>
<path d="M235.619 133.368C235.619 146.587 233.349 158.747 228.808 169.847C224.267 180.948 217.96 190.534 209.887 198.607C201.814 206.68 192.227 212.987 181.127 217.528C170.128 221.968 158.119 224.188 145.102 224.188H91.8203C78.8027 224.188 66.7438 221.968 55.6436 217.528C44.5433 212.987 34.9567 206.68 26.8838 198.607C18.8109 190.534 12.4535 180.948 7.81152 169.847C3.27051 158.747 1 146.587 1 133.368V91.8932C1 78.7747 3.27051 66.6653 7.81152 55.5651C12.4535 44.3639 18.8109 34.7773 26.8838 26.8053C34.9567 18.7324 44.5433 12.4254 55.6436 7.8844C66.7438 3.34339 78.8027 1.07288 91.8203 1.07288H145.102C158.119 1.07288 170.128 3.34339 181.127 7.8844C192.227 12.4254 201.814 18.7324 209.887 26.8053C217.96 34.7773 224.267 44.3639 228.808 55.5651C233.349 66.6653 235.619 78.7747 235.619 91.8932V133.368ZM196.264 91.8932C196.264 84.123 195.002 77.1097 192.479 70.8532C190.058 64.4957 186.576 59.097 182.035 54.6569C177.595 50.1158 172.196 46.6344 165.839 44.2125C159.582 41.6897 152.67 40.4283 145.102 40.4283H91.8203C84.151 40.4283 77.1377 41.6897 70.7803 44.2125C64.5238 46.6344 59.125 50.1158 54.584 54.6569C50.043 59.097 46.5111 64.4957 43.9883 70.8532C41.5664 77.1097 40.3555 84.123 40.3555 91.8932V133.368C40.3555 141.138 41.5664 148.202 43.9883 154.559C46.5111 160.816 50.043 166.214 54.584 170.755C59.125 175.196 64.5238 178.677 70.7803 181.2C77.1377 183.622 84.151 184.833 91.8203 184.833H144.799C152.468 184.833 159.431 183.622 165.688 181.2C172.045 178.677 177.494 175.196 182.035 170.755C186.576 166.214 190.058 160.816 192.479 154.559C195.002 148.202 196.264 141.138 196.264 133.368V91.8932Z" stroke="url(#paint0_linear_67_1134)" stroke-width="2" mask="url(#path-1-outside-1_67_1134)"/>
<path d="M487.191 201.332C487.191 204.157 486.687 206.781 485.678 209.203C484.669 211.625 483.256 213.744 481.439 215.56C479.623 217.276 477.504 218.638 475.082 219.647C472.66 220.656 470.087 221.161 467.362 221.161H378.661C370.285 221.161 361.809 220.253 353.231 218.436C344.654 216.62 336.329 213.845 328.256 210.111C320.284 206.276 312.766 201.433 305.702 195.58C298.638 189.727 292.432 182.814 287.084 174.842C281.837 166.769 277.699 157.587 274.672 147.294C271.645 136.9 270.131 125.345 270.131 112.631V4.10022H309.486V112.631C309.486 123.731 311 133.116 314.027 140.785C317.156 148.454 321.091 154.862 325.834 160.008C330.577 165.155 335.774 169.191 341.425 172.118C347.076 175.044 352.424 177.214 357.47 178.627C362.616 180.039 367.107 180.948 370.941 181.351C374.877 181.654 377.45 181.805 378.661 181.805H447.836V4.10022H487.191V201.332Z" stroke="url(#paint1_linear_67_1134)" stroke-width="2" mask="url(#path-1-outside-1_67_1134)"/>
<path d="M749.965 77.0592C749.965 86.0403 748.855 94.0628 746.635 101.127C744.415 108.19 741.387 114.447 737.553 119.896C733.819 125.244 729.48 129.836 724.535 133.671C719.59 137.505 714.394 140.684 708.944 143.207C703.596 145.629 698.147 147.394 692.597 148.505C687.147 149.615 682.001 150.17 677.157 150.17L759.35 221.161H698.5L616.459 150.17H588.153V110.814H677.157C682.102 110.41 686.592 109.401 690.629 107.787C694.766 106.071 698.298 103.801 701.225 100.975C704.252 98.1497 706.573 94.7692 708.188 90.8336C709.802 86.7972 710.609 82.2057 710.609 77.0592V52.235C710.609 50.0149 710.307 48.3499 709.701 47.2399C709.197 46.0289 708.49 45.1712 707.582 44.6666C706.775 44.0612 705.867 43.708 704.857 43.6071C703.949 43.5061 703.091 43.4557 702.284 43.4557H572.411V221.161H533.056V23.9293C533.056 21.2047 533.56 18.6315 534.569 16.2096C535.578 13.7877 536.941 11.6686 538.656 9.85218C540.473 8.03577 542.592 6.62301 545.014 5.6139C547.436 4.60478 550.059 4.10022 552.885 4.10022H702.284C711.063 4.10022 718.48 5.71481 724.535 8.94397C730.59 12.0722 735.484 16.0582 739.218 20.902C743.052 25.6448 745.777 30.7913 747.392 36.3414C749.107 41.8916 749.965 47.0885 749.965 51.9323V77.0592Z" stroke="url(#paint2_linear_67_1134)" stroke-width="2" mask="url(#path-1-outside-1_67_1134)"/>
<path d="M1081.31 43.4557H994.574V221.161H955.219V43.4557H868.334V4.10022H1081.31V43.4557Z" stroke="url(#paint3_linear_67_1134)" stroke-width="2" mask="url(#path-1-outside-1_67_1134)"/>
<path d="M1288.83 132.46H1164.56V92.8014H1288.83V132.46ZM1306.54 221.161H1164.56C1159.11 221.161 1153.16 220.202 1146.7 218.285C1140.24 216.367 1134.24 213.239 1128.69 208.9C1123.24 204.46 1118.64 198.758 1114.91 191.796C1111.28 184.732 1109.46 176.104 1109.46 165.912V23.9293C1109.46 21.2047 1109.97 18.6315 1110.98 16.2096C1111.98 13.7877 1113.35 11.6686 1115.06 9.85218C1116.88 8.03577 1119 6.62301 1121.42 5.6139C1123.84 4.60478 1126.47 4.10022 1129.29 4.10022H1306.54V43.4557H1148.82V165.912C1148.82 171.058 1150.18 174.994 1152.9 177.718C1155.63 180.443 1159.61 181.805 1164.86 181.805H1306.54V221.161Z" stroke="url(#paint4_linear_67_1134)" stroke-width="2" mask="url(#path-1-outside-1_67_1134)"/>
<path d="M1557.66 221.161H1518.3V167.88H1379.96V221.161H1340.6V112.631C1340.6 96.7874 1343.32 82.2057 1348.77 68.8854C1354.22 55.5651 1361.79 44.1116 1371.48 34.525C1381.17 24.9384 1392.62 17.471 1405.84 12.1227C1419.06 6.77438 1433.49 4.10022 1449.13 4.10022H1537.83C1540.56 4.10022 1543.13 4.60478 1545.55 5.6139C1547.97 6.62301 1550.09 8.03577 1551.91 9.85218C1553.72 11.6686 1555.14 13.7877 1556.15 16.2096C1557.16 18.6315 1557.66 21.2047 1557.66 23.9293V221.161ZM1379.96 128.524H1518.3V43.4557H1449.13C1447.92 43.4557 1445.35 43.6575 1441.41 44.0612C1437.58 44.3639 1433.08 45.2216 1427.94 46.6344C1422.89 48.0472 1417.54 50.2168 1411.89 53.1432C1406.24 56.0696 1401.05 60.1061 1396.3 65.2526C1391.56 70.3991 1387.62 76.8574 1384.5 84.6276C1381.47 92.2968 1379.96 101.631 1379.96 112.631V128.524Z" stroke="url(#paint5_linear_67_1134)" stroke-width="2" mask="url(#path-1-outside-1_67_1134)"/>
<path d="M1856.16 221.161H1816.5V91.8932L1746.72 214.652C1745 217.78 1742.58 220.152 1739.45 221.766C1736.42 223.381 1733.15 224.188 1729.61 224.188C1726.18 224.188 1722.95 223.381 1719.93 221.766C1717 220.152 1714.68 217.78 1712.96 214.652L1642.88 91.8932V221.161H1603.52V20.902C1603.52 16.361 1604.84 12.3245 1607.46 8.79261C1610.18 5.26071 1613.72 2.88929 1618.06 1.67835C1620.17 1.17379 1622.29 1.02242 1624.41 1.22425C1626.53 1.32516 1628.55 1.77926 1630.47 2.58655C1632.49 3.29293 1634.3 4.3525 1635.92 5.76526C1637.53 7.07711 1638.89 8.6917 1640 10.609L1729.61 166.366L1819.22 10.609C1821.54 6.77438 1824.72 4.04977 1828.76 2.43519C1832.9 0.820602 1837.18 0.568323 1841.62 1.67835C1845.86 2.88929 1849.34 5.26071 1852.07 8.79261C1854.79 12.3245 1856.16 16.361 1856.16 20.902V221.161Z" stroke="url(#paint6_linear_67_1134)" stroke-width="2" mask="url(#path-1-outside-1_67_1134)"/>
</g>
<defs>
<linearGradient id="paint0_linear_67_1134" x1="928.578" y1="1" x2="928.578" y2="224.188" gradientUnits="userSpaceOnUse">
<stop stop-color="#6E41F7"/>
<stop offset="1" stop-color="#F642D7"/>
</linearGradient>
<linearGradient id="paint1_linear_67_1134" x1="928.578" y1="1" x2="928.578" y2="224.188" gradientUnits="userSpaceOnUse">
<stop stop-color="#6E41F7"/>
<stop offset="1" stop-color="#F642D7"/>
</linearGradient>
<linearGradient id="paint2_linear_67_1134" x1="928.578" y1="1" x2="928.578" y2="224.188" gradientUnits="userSpaceOnUse">
<stop stop-color="#6E41F7"/>
<stop offset="1" stop-color="#F642D7"/>
</linearGradient>
<linearGradient id="paint3_linear_67_1134" x1="928.578" y1="1" x2="928.578" y2="224.188" gradientUnits="userSpaceOnUse">
<stop stop-color="#6E41F7"/>
<stop offset="1" stop-color="#F642D7"/>
</linearGradient>
<linearGradient id="paint4_linear_67_1134" x1="928.578" y1="1" x2="928.578" y2="224.188" gradientUnits="userSpaceOnUse">
<stop stop-color="#6E41F7"/>
<stop offset="1" stop-color="#F642D7"/>
</linearGradient>
<linearGradient id="paint5_linear_67_1134" x1="928.578" y1="1" x2="928.578" y2="224.188" gradientUnits="userSpaceOnUse">
<stop stop-color="#6E41F7"/>
<stop offset="1" stop-color="#F642D7"/>
</linearGradient>
<linearGradient id="paint6_linear_67_1134" x1="928.578" y1="1" x2="928.578" y2="224.188" gradientUnits="userSpaceOnUse">
<stop stop-color="#6E41F7"/>
<stop offset="1" stop-color="#F642D7"/>
</linearGradient>
</defs>
</svg>
