<svg width="51" height="49" viewBox="0 0 51 49" fill="none" xmlns="http://www.w3.org/2000/svg">
<path d="M45.4239 16.4155C46.5018 18.0905 46.9713 20.085 46.7539 22.0649L48.2474 17.4291C49.4929 19.7131 49.4759 21.7261 48.4384 25.8271L49.6698 23.8504C49.8075 24.7768 49.7455 25.722 49.4879 26.6224C49.2302 27.5229 48.783 28.3578 48.1761 29.0712L49.8436 27.5094C48.3446 38.9243 39.3288 42.4956 27.1979 42.4956M24.0227 42.4106C13.8074 41.8406 7.54529 38.385 2.39427 31.45L5.40826 32.2984C3.39034 31.0969 0.420761 27.721 1.32231 24.6272L5.38071 27.9943C3.60765 25.2574 1.44177 22.1781 1.95489 18.3993L5.40244 21.0095C5.79232 19.091 6.58615 17.2774 7.73113 15.6895" stroke="white" stroke-width="1.33333" stroke-linecap="round" stroke-linejoin="round"/>
<path d="M37.2666 29.0033L39.0019 31.0822L39.9566 28.7559L37.2666 29.0033Z" stroke="white" stroke-width="1.33333" stroke-linecap="round" stroke-linejoin="round"/>
<path d="M38.9406 33.5264C39.6303 34.6736 39.9712 34.7711 41.3889 34.5723C40.7139 35.0008 40.087 35.5005 39.5188 36.0629C38.5763 37.1944 38.6099 39.0706 37.4351 39.9587C37.1291 40.1702 36.752 40.2526 36.3857 40.1879C36.203 40.1639 36.0272 40.1024 35.8694 40.0072C35.7116 39.912 35.5752 39.7851 35.4688 39.6346C34.8194 38.5567 35.4416 37.1099 35.2551 35.8653C35.147 35.1449 34.7334 33.743 34.7334 33.743C36.3499 34.8637 37.8195 34.7629 38.9406 33.5264Z" stroke="white" stroke-width="1.33333" stroke-linecap="round" stroke-linejoin="round"/>
<path d="M29.0035 27.6143C29.5949 27.6143 30.0744 26.895 30.0744 26.0078C30.0744 25.1206 29.5949 24.4014 29.0035 24.4014C28.4121 24.4014 27.9326 25.1206 27.9326 26.0078C27.9326 26.895 28.4121 27.6143 29.0035 27.6143Z" stroke="white" stroke-width="1.33333" stroke-linecap="round" stroke-linejoin="round"/>
<path d="M42.4505 27.6282C42.9237 27.6282 43.3073 27.0049 43.3073 26.236C43.3073 25.4671 42.9237 24.8438 42.4505 24.8438C41.9773 24.8438 41.5938 25.4671 41.5938 26.236C41.5938 27.0049 41.9773 27.6282 42.4505 27.6282Z" stroke="white" stroke-width="1.33333" stroke-linecap="round" stroke-linejoin="round"/>
<path d="M8.66999 8.33209C8.66163 5.74853 9.44194 3.22396 10.9066 1.0957C13.1125 1.59145 15.2097 2.48443 17.0958 3.731M20.6375 6.93215C21.3316 7.76827 21.9531 8.66214 22.4951 9.60402" stroke="white" stroke-width="1.33333" stroke-linecap="round" stroke-linejoin="round"/>
<path d="M35.4639 10.2671C35.7849 8.97435 36.2631 7.72582 36.8877 6.54936M38.8614 3.75684C39.6394 2.87606 40.5136 2.08531 41.4679 1.39941C42.327 2.22475 43.0215 3.20575 43.5145 4.29026" stroke="white" stroke-width="1.33333" stroke-linecap="round" stroke-linejoin="round"/>
<path d="M21.3525 7.79094C28.2807 6.39634 31.0231 6.83156 35.6202 8.86504" stroke="white" stroke-width="1.33333" stroke-linecap="round" stroke-linejoin="round"/>
<path d="M9.6123 12.2045L13.896 5.77892C16.7721 1.46509 36.5132 0.120721 42.6869 6.29382L48.0413 11.6481L45.8996 13.79L40.545 8.43572C36.2295 4.12034 19.938 4.74782 17.1089 8.99135L12.8252 15.4169L9.6123 12.2045Z" stroke="white" stroke-width="1.33333" stroke-linecap="round" stroke-linejoin="round"/>
<path d="M18.1765 8.01885C19.2517 9.13258 19.9272 10.5714 20.0974 12.11C20.2676 13.6486 19.9229 15.2003 19.1172 16.5221C18.3545 17.8184 17.151 18.7971 15.7265 19.2795C14.3019 19.7619 12.7514 19.7158 11.358 19.1495C9.94983 18.5337 8.79133 17.4597 8.0709 16.102C7.35046 14.7444 7.11045 13.1829 7.38987 11.6716C7.61743 10.1687 8.36236 8.79236 9.49616 7.77996C10.63 6.76756 12.0815 6.1826 13.6005 6.12598" stroke="white" stroke-width="1.33333" stroke-linecap="round" stroke-linejoin="round"/>
<path d="M41.525 5.20233C43.5984 3.74658 46.1996 4.41692 47.6587 6.78301C48.3719 7.99244 48.725 9.38029 48.6766 10.7835C48.6282 12.1867 48.1803 13.5469 47.3856 14.7044C47.0685 15.2116 46.6447 15.6436 46.1436 15.9703C45.6425 16.297 45.0762 16.5105 44.4842 16.5959C43.8921 16.6814 43.2886 16.6367 42.7156 16.465C42.1425 16.2934 41.6138 15.9989 41.1663 15.602C40.1712 14.6313 39.4824 13.3903 39.1851 12.0324C38.8877 10.6744 38.995 9.25914 39.4935 7.96149" stroke="white" stroke-width="1.33333" stroke-linecap="round" stroke-linejoin="round"/>
<path d="M10.6528 18.8955L10.2412 21.2682L11.9393 21.7979L13.2073 19.6217" stroke="white" stroke-width="1.33333" stroke-linecap="round" stroke-linejoin="round"/>
<path d="M11.0699 21.6592C10.9665 22.4398 10.9625 23.2304 11.058 24.012C11.365 25.2881 12.8914 26.197 12.8662 27.5098C12.808 30.5359 8.67645 32.3964 8.38932 35.4096C7.97274 39.786 13.1055 42.9482 12.6102 47.9048" stroke="white" stroke-width="1.33333" stroke-linecap="round" stroke-linejoin="round"/>
<path d="M28.1394 33.4478C32.5754 33.4478 36.1714 29.8518 36.1714 25.4158C36.1714 20.9798 32.5754 17.3838 28.1394 17.3838C23.7035 17.3838 20.1074 20.9798 20.1074 25.4158C20.1074 29.8518 23.7035 33.4478 28.1394 33.4478Z" stroke="white" stroke-width="1.33333" stroke-linecap="round" stroke-linejoin="round"/>
<path d="M27.3612 33.5439L27.1162 35.9438" stroke="white" stroke-width="1.33333" stroke-linecap="round" stroke-linejoin="round"/>
<path d="M27.3368 35.1317C26.9568 35.1024 26.5789 35.2103 26.2717 35.4359C25.9644 35.6615 25.7483 35.9897 25.6625 36.3611L25.5023 38.1634C25.4719 38.4634 25.5388 38.7653 25.6932 39.0244C25.8475 39.2835 26.0811 39.4861 26.3594 39.6023C26.7639 39.6358 27.1673 39.5255 27.4985 39.2909C27.8298 39.0564 28.0677 38.7125 28.1703 38.3198L28.3921 36.818C28.4302 36.4594 28.347 36.0984 28.1557 35.7926C27.9644 35.4869 27.676 35.2542 27.3368 35.1317Z" stroke="white" stroke-width="1.33333" stroke-linecap="round" stroke-linejoin="round"/>
<path d="M24.9011 41.4668L24.0546 42.8009C23.9108 43.0215 23.8418 43.2826 23.8577 43.5454C23.8736 43.8083 23.9737 44.0591 24.1431 44.2607C24.4434 44.4488 24.8005 44.525 25.1515 44.4757C25.5024 44.4265 25.8248 44.2551 26.0618 43.9916L26.8356 42.9153C27.0097 42.6505 27.0894 42.3347 27.0616 42.019C27.0338 41.7033 26.9003 41.4062 26.6827 41.1758C26.3997 41.0044 26.0648 40.9395 25.7382 40.9928C25.4116 41.0461 25.1148 41.2142 24.9011 41.4668Z" stroke="white" stroke-width="1.33333" stroke-linecap="round" stroke-linejoin="round"/>
<path d="M21.2102 43.9804L19.6537 44.2524C19.1735 44.3364 18.6078 44.8137 18.6337 45.3005C18.6967 45.6493 18.8808 45.9646 19.1534 46.191C19.426 46.4175 19.7698 46.5405 20.1242 46.5384L21.441 46.3863C21.7541 46.3368 22.0412 46.1831 22.256 45.9501C22.4708 45.7171 22.6006 45.4184 22.6245 45.1023C22.5608 44.7776 22.3834 44.4863 22.1242 44.2806C21.8649 44.075 21.5409 43.9685 21.2102 43.9804Z" stroke="white" stroke-width="1.33333" stroke-linecap="round" stroke-linejoin="round"/>
<path d="M17.2721 47.9055C17.3508 47.6901 17.357 47.4549 17.2898 47.2357C17.2226 47.0165 17.0855 46.8252 16.8996 46.691C16.622 46.5163 16.2933 46.4411 15.9673 46.4778C15.6414 46.5145 15.3376 46.6609 15.1058 46.8929L14.2168 47.9051" stroke="white" stroke-width="1.33333" stroke-linecap="round" stroke-linejoin="round"/>
<path d="M26.6558 38.8721L26.1533 41.4449" stroke="white" stroke-width="1.33333" stroke-linecap="round" stroke-linejoin="round"/>
<path d="M24.6963 43.7158L21.8809 45.0647" stroke="white" stroke-width="1.33333" stroke-linecap="round" stroke-linejoin="round"/>
<path d="M19.6215 45.4502L16.4746 47.1592" stroke="white" stroke-width="1.33333" stroke-linecap="round" stroke-linejoin="round"/>
</svg>
