<svg width="24" height="24" viewBox="0 0 24 24" fill="none" xmlns="http://www.w3.org/2000/svg">
<path fill-rule="evenodd" clip-rule="evenodd" d="M24 12C24 18.6274 18.6274 24 12 24C5.37258 24 0 18.6274 0 12C0 5.37258 5.37258 0 12 0C18.6274 0 24 5.37258 24 12ZM12.3746 8.66527C11.2103 9.15973 8.88334 10.1831 5.39368 11.7355C4.82702 11.9656 4.53017 12.1906 4.50315 12.4107C4.45748 12.7827 4.91368 12.9291 5.53492 13.1286C5.61942 13.1557 5.70697 13.1838 5.79673 13.2136C6.40793 13.4165 7.23009 13.6538 7.6575 13.6632C8.04521 13.6718 8.47792 13.5086 8.95566 13.1736C12.2162 10.9264 13.8992 9.79061 14.0049 9.76612C14.0794 9.74885 14.1828 9.72713 14.2527 9.79065C14.3227 9.85417 14.3159 9.97446 14.3084 10.0067C14.2633 10.2034 12.4725 11.9033 11.5458 12.783C11.2569 13.0572 11.0519 13.2517 11.01 13.2962C10.9162 13.3957 10.8206 13.4898 10.7286 13.5803C10.1608 14.1392 9.73501 14.5583 10.7522 15.2427C11.241 15.5716 11.6322 15.8436 12.0224 16.1149C12.4486 16.4112 12.8737 16.7068 13.4236 17.0749C13.5638 17.1686 13.6976 17.2661 13.8279 17.3609C14.3239 17.7219 14.7695 18.0463 15.3199 17.9946C15.6398 17.9645 15.9702 17.6574 16.138 16.7415C16.5346 14.5769 17.3141 9.88701 17.4942 7.9544C17.51 7.78508 17.4901 7.56838 17.4742 7.47325C17.4583 7.37813 17.4249 7.2426 17.3038 7.14226C17.1604 7.02344 16.939 6.99838 16.84 7.00008C16.3897 7.00826 15.699 7.2535 12.3746 8.66527Z" fill="white" fill-opacity="0.85"/>
</svg>
