<svg width="24" height="24" viewBox="0 0 24 24" fill="none" xmlns="http://www.w3.org/2000/svg">
<path fill-rule="evenodd" clip-rule="evenodd" d="M12 0C5.37258 0 0 5.37258 0 12C0 18.6274 5.37258 24 12 24C18.6274 24 24 18.6274 24 12C24 5.37258 18.6274 0 12 0ZM12.0597 10.0205L12.0261 9.4582C11.9253 8.00085 12.8101 6.66972 14.2101 6.15334C14.7252 5.96973 15.5988 5.94678 16.17 6.10743C16.394 6.17629 16.8196 6.40579 17.122 6.61234L17.6707 6.99103L18.2755 6.79595C18.6115 6.69267 19.0595 6.52054 19.2611 6.40579C19.4515 6.30251 19.6195 6.24514 19.6195 6.27956C19.6195 6.47464 19.2051 7.14021 18.8579 7.50741C18.3875 8.0238 18.5219 8.0697 19.4739 7.72544C20.0451 7.53036 20.0562 7.53036 19.9443 7.74839C19.8771 7.86315 19.5299 8.26478 19.1603 8.63199C18.5331 9.26312 18.4995 9.33198 18.4995 9.85984C18.4995 10.6746 18.1187 12.3729 17.7379 13.3024C17.0324 15.0466 15.5204 16.8483 14.0085 17.7548C11.8805 19.0286 9.04704 19.3499 6.66152 18.604C5.86635 18.3515 4.5 17.7089 4.5 17.5941C4.5 17.5597 4.91439 17.5138 5.41837 17.5023C6.47113 17.4794 7.52389 17.181 8.41986 16.6532L9.02464 16.286L8.33027 16.045C7.3447 15.7007 6.45993 14.9089 6.23594 14.1631C6.16874 13.9221 6.19114 13.9106 6.81832 13.9106L7.4679 13.8991L6.91911 13.6352C6.26954 13.3024 5.67596 12.7401 5.38477 12.1664C5.17198 11.7533 4.90319 10.709 4.98158 10.6287C5.00398 10.5943 5.23917 10.6631 5.50796 10.7549C6.28074 11.0418 6.38153 10.9729 5.93355 10.491C5.09358 9.61886 4.83599 8.32215 5.23917 7.0943L5.42957 6.54349L6.16874 7.28938C7.68069 8.79264 9.46142 9.68771 11.4998 9.95164L12.0597 10.0205Z" fill="white" fill-opacity="0.85"/>
</svg>
